<?xml version="1.0" encoding="utf-8"?><svg xml:space="preserve" viewBox="0 0 100 100" y="0" x="0" xmlns="http://www.w3.org/2000/svg" id="圖層_1" version="1.1" width="182px" height="182px" xmlns:xlink="http://www.w3.org/1999/xlink" style="width:100%;height:100%;background-size:initial;background-repeat-y:initial;background-repeat-x:initial;background-position-y:initial;background-position-x:initial;background-origin:initial;background-image:initial;background-color:rgb(255, 255, 255);background-clip:initial;background-attachment:initial;animation-play-state:paused" ><g class="ldl-scale" style="transform-origin:50% 50%;transform:rotate(0deg) scale(0.8, 0.8);animation-play-state:paused" ><path stroke-miterlimit="10" stroke-width="3" stroke="#333" fill="#e0e0e0" d="M15.874 21.957h68.252A5.874 5.874 0 0 1 90 27.831v44.338a5.874 5.874 0 0 1-5.874 5.874H15.874A5.874 5.874 0 0 1 10 72.169V27.831a5.874 5.874 0 0 1 5.874-5.874z" style="stroke:rgb(51, 51, 51);fill:rgb(76, 141, 255);animation-play-state:paused" ></path>
<path d="M10 30.795h80v11.538H10z" stroke-miterlimit="10" stroke-width="3" stroke="#333" fill="#666" style="stroke:rgb(51, 51, 51);fill:rgb(50, 49, 49);animation-play-state:paused" ></path>
<path stroke-miterlimit="10" stroke="#333" fill="#f5e6c8" d="M30.344 62.491h0a2.462 2.462 0 0 1 2.461-2.462 2.461 2.461 0 0 1 0-4.924 2.461 2.461 0 0 1 0-4.924h-9.192a2.462 2.462 0 0 1 0 4.924 2.462 2.462 0 0 1 0 4.924 2.462 2.462 0 0 1 2.462 2.462v0a2.461 2.461 0 0 1-2.462 2.461h9.192a2.461 2.461 0 0 1-2.461-2.461z" style="stroke:rgb(51, 51, 51);fill:rgb(245, 230, 200);animation-play-state:paused" ></path>
<path stroke-miterlimit="10" stroke="#333" fill="#f8b26a" d="M23.614 55.106a2.462 2.462 0 0 0 0-4.924h-3.322c-.937 0-1.732.599-2.029 1.434v3.489h5.351z" style="stroke:rgb(51, 51, 51);fill:rgb(248, 178, 106);animation-play-state:paused" ></path>
<path stroke-miterlimit="10" stroke="#333" fill="#f8b26a" d="M18.262 60.029h5.351a2.462 2.462 0 0 0 0-4.924h-5.351v4.924z" style="stroke:rgb(51, 51, 51);fill:rgb(248, 178, 106);animation-play-state:paused" ></path>
<path stroke-miterlimit="10" stroke="#333" fill="#f8b26a" d="M26.075 62.491h0a2.462 2.462 0 0 0-2.462-2.462h-5.351v3.489a2.154 2.154 0 0 0 2.029 1.434h3.322a2.461 2.461 0 0 0 2.462-2.461z" style="stroke:rgb(51, 51, 51);fill:rgb(248, 178, 106);animation-play-state:paused" ></path>
<path stroke-miterlimit="10" stroke="#333" fill="#f8b26a" d="M30.344 52.645a2.462 2.462 0 0 0 2.461 2.462h5.351v-3.489a2.154 2.154 0 0 0-2.029-1.434h-3.322a2.46 2.46 0 0 0-2.461 2.461z" style="stroke:rgb(51, 51, 51);fill:rgb(248, 178, 106);animation-play-state:paused" ></path>
<path stroke-miterlimit="10" stroke="#333" fill="#f8b26a" d="M30.344 57.568a2.462 2.462 0 0 0 2.461 2.462h5.351v-4.923h-5.351a2.46 2.46 0 0 0-2.461 2.461z" style="stroke:rgb(51, 51, 51);fill:rgb(248, 178, 106);animation-play-state:paused" ></path>
<path stroke-miterlimit="10" stroke="#333" fill="#f8b26a" d="M32.805 60.029a2.461 2.461 0 0 0-2.461 2.462v0a2.461 2.461 0 0 0 2.461 2.461h3.322c.937 0 1.732-.599 2.029-1.434v-3.489h-5.351z" style="stroke:rgb(51, 51, 51);fill:rgb(248, 178, 106);animation-play-state:paused" ></path>
<metadata xmlns:d="https://loading.io/stock/" style="animation-play-state:paused" ><d:name style="animation-play-state:paused" >credit card</d:name>
<d:tags style="animation-play-state:paused" >credit card,debit card,cash card,atm,pre-paid card,pay,charge,spend</d:tags>
<d:license style="animation-play-state:paused" >by</d:license>
<d:slug style="animation-play-state:paused" >9pi6tu</d:slug></metadata></g><!-- generated by https://loading.io/ --></svg>