<?xml version="1.0" encoding="utf-8"?><svg xml:space="preserve" viewBox="0 0 100 100" y="0" x="0" xmlns="http://www.w3.org/2000/svg" id="圖層_1" version="1.1" width="40px" height="40px" xmlns:xlink="http://www.w3.org/1999/xlink" style="width:100%;height:100%;background-size:initial;background-repeat-y:initial;background-repeat-x:initial;background-position-y:initial;background-position-x:initial;background-origin:initial;background-image:initial;background-color:rgb(255, 255, 255);background-clip:initial;background-attachment:initial;animation-play-state:paused" ><g class="ldl-scale" style="transform-origin:50% 50%;transform:rotate(0deg) scale(0.8, 0.8);animation-play-state:paused" ><path stroke-miterlimit="10" stroke-linecap="round" stroke-width="3" stroke="#333" fill="#e0e0e0" d="M78.715 90h-57.43a4.943 4.943 0 0 1-4.943-4.943V47.749a4.943 4.943 0 0 1 4.943-4.943h57.431a4.943 4.943 0 0 1 4.943 4.943v37.308A4.944 4.944 0 0 1 78.715 90z" style="stroke:rgb(51, 51, 51);fill:rgb(76, 141, 255);animation-play-state:paused" ></path>
<path d="M16.342 69.758h67.316V80.46H16.342z" stroke-miterlimit="10" stroke-linecap="round" stroke-width="3" stroke="#333" fill="#666" style="stroke:rgb(51, 51, 51);fill:rgb(186, 211, 241);animation-play-state:paused" ></path>
<path stroke-miterlimit="10" stroke-width="3" stroke="#333" fill="#999" d="M72.391 31.573l-21.005-21a1.958 1.958 0 0 0-2.768 0l-21.01 21c-1.234 1.233-.36 3.343 1.384 3.343h13.947v22.878a3.178 3.178 0 0 0 3.178 3.178h7.767a3.178 3.178 0 0 0 3.178-3.178V34.916h13.946c1.743 0 2.617-2.11 1.383-3.343z" style="stroke:rgb(51, 51, 51);fill:rgb(186, 211, 241);animation-play-state:paused" ></path>
<metadata xmlns:d="https://loading.io/stock/" style="animation-play-state:paused" ><d:name style="animation-play-state:paused" >credit card</d:name>
<d:tags style="animation-play-state:paused" >credit card,insert,pay,charge,spend</d:tags>
<d:license style="animation-play-state:paused" >by</d:license>
<d:slug style="animation-play-state:paused" >929u1v</d:slug></metadata></g><!-- generated by https://loading.io/ --></svg>