<?xml version="1.0" encoding="utf-8"?><svg viewBox="0 0 100 100" xmlns="http://www.w3.org/2000/svg" width="36px" height="36px" xmlns:xlink="http://www.w3.org/1999/xlink" style="width:100%;height:100%;background-size:initial;background-repeat-y:initial;background-repeat-x:initial;background-position-y:initial;background-position-x:initial;background-origin:initial;background-image:initial;background-color:rgb(223, 231, 245);background-clip:initial;background-attachment:initial;animation-play-state:paused" ><g class="ldl-scale" style="transform-origin:50% 50%;transform:rotate(0deg) scale(0.8, 0.8);animation-play-state:paused" ><g style="animation-play-state:paused" ><path fill="#e0e0e0" d="M86.767 70.312H18.823a3.233 3.233 0 0 1-3.233-3.233V23.251a3.233 3.233 0 0 1 3.233-3.233h67.944A3.233 3.233 0 0 1 90 23.251v43.828a3.233 3.233 0 0 1-3.233 3.233z" style="fill:rgb(76, 141, 255);animation-play-state:paused" ></path>
<path d="M15.59 24.647H90v12.536H15.59z" fill="#323232" style="fill:rgb(50, 50, 50);animation-play-state:paused" ></path>
<path d="M20.789 41.792h47.95v6.041h-47.95z" fill="#fff" style="fill:rgb(255, 255, 255);animation-play-state:paused" ></path>
<path d="M84.867 47.834H74.446v-6.04h10.42z" fill="#fff" style="fill:rgb(255, 255, 255);animation-play-state:paused" ></path>
<path d="M52.612 62.859h32.256v3.021H52.612z" fill="#fff" style="fill:rgb(255, 255, 255);animation-play-state:paused" ></path></g>
<g style="animation-play-state:paused" ><circle fill="#a0c8d7" r="13.909" cy="66.074" cx="23.909" style="fill:rgb(180, 210, 242);animation-play-state:paused" ></circle>
<circle fill="#fff" r="2.5" cy="66.074" cx="23.909" style="fill:rgb(255, 255, 255);animation-play-state:paused" ></circle>
<circle fill="#fff" r="2.5" cy="66.074" cx="16.409" style="fill:rgb(255, 255, 255);animation-play-state:paused" ></circle>
<circle fill="#fff" r="2.5" cy="66.074" cx="31.409" style="fill:rgb(255, 255, 255);animation-play-state:paused" ></circle></g>
<metadata xmlns:d="https://loading.io/stock/" style="animation-play-state:paused" ><d:name style="animation-play-state:paused" >credit card</d:name>


<d:tags style="animation-play-state:paused" >credit card,debit card,payment,visa,mastercard,jcb</d:tags>


<d:license style="animation-play-state:paused" >by</d:license>


<d:slug style="animation-play-state:paused" >k0wuze</d:slug></metadata></g><!-- generated by https://loading.io/ --></svg>