<?xml version="1.0" encoding="utf-8"?><svg xml:space="preserve" viewBox="0 0 100 100" y="0" x="0" xmlns="http://www.w3.org/2000/svg" id="Layer_1" version="1.1" width="36px" height="36px" xmlns:xlink="http://www.w3.org/1999/xlink" style="width:100%;height:100%;background-size:initial;background-repeat-y:initial;background-repeat-x:initial;background-position-y:initial;background-position-x:initial;background-origin:initial;background-image:initial;background-color:rgb(255, 255, 255);background-clip:initial;background-attachment:initial;animation-play-state:paused" ><g class="ldl-scale" style="transform-origin:50% 50%;transform:rotate(0deg) scale(0.8, 0.8);animation-play-state:paused" ><circle stroke-width="6" stroke="#000101" fill="#e0e0e0" stroke-miterlimit="10" r="40" cy="50" cx="50" style="stroke:rgb(255, 224, 0);fill:rgb(255, 255, 255);animation-play-state:paused" ></circle>
<path stroke-miterlimit="10" stroke-width="5" stroke="#000101" fill="none" stroke-linecap="round" d="M31.866 58.591c2.57 7.556 9.709 13 18.134 13s15.564-5.444 18.134-13" style="stroke:rgb(255, 224, 0);animation-play-state:paused" ></path>
<path fill="#000101" d="M25.5 35.664c0 7.014 8 10.133 8 10.133s8-2.941 8-10.133c0-6.052-8-6.141-8-.533 0-5.608-8-5.164-8 .533z" style="fill:rgb(255, 224, 0);animation-play-state:paused" ></path>
<path fill="#000101" d="M58.5 35.664c0 7.014 8 10.133 8 10.133s8-2.941 8-10.133c0-6.052-8-6.141-8-.533 0-5.608-8-5.164-8 .533z" style="fill:rgb(255, 224, 0);animation-play-state:paused" ></path>
<metadata xmlns:d="https://loading.io/stock/" style="animation-play-state:paused" ><d:name style="animation-play-state:paused" >love face</d:name>


<d:tags style="animation-play-state:paused" >love face,fall in love,like,favorite,enamour,enchanted,emotion,feeling,heart,emoji</d:tags>


<d:license style="animation-play-state:paused" >by</d:license>


<d:slug style="animation-play-state:paused" >sw06cf</d:slug></metadata></g><!-- generated by https://loading.io/ --></svg>