<?xml version="1.0" encoding="utf-8"?><svg xml:space="preserve" viewBox="0 0 100 100" y="0" x="0" xmlns="http://www.w3.org/2000/svg" id="圖層_1" version="1.1" width="40px" height="40px" xmlns:xlink="http://www.w3.org/1999/xlink" style="width:100%;height:100%;background-size:initial;background-repeat-y:initial;background-repeat-x:initial;background-position-y:initial;background-position-x:initial;background-origin:initial;background-image:initial;background-color:rgb(255, 255, 255);background-clip:initial;background-attachment:initial;animation-play-state:paused" ><g class="ldl-scale" style="transform-origin:50% 50%;transform:rotate(0deg) scale(0.8, 0.8);animation-play-state:paused" ><g style="animation-play-state:paused" ><path d="M80.398 13.459l-4.209 45.683-19.513-.483-3.919-42.526z" fill="#abbd81" style="fill:rgb(171, 189, 129);animation-play-state:paused" ></path>
<path fill="#849b87" d="M66.33 34.007c3.725-.161 6.181 2.796 6.006 6.417-.165 3.425-2.601 6.095-5.972 6.126-3.311.031-6.085-2.499-6.257-5.804-.181-3.485 2.572-6.581 6.223-6.739z" style="fill:rgb(132, 155, 135);animation-play-state:paused" ></path>
<path fill="#849b87" d="M66.299 22.374c1.831-.137 2.825 1.415 2.785 3.416-.039 1.946-1.024 3.564-2.766 3.66-1.725.096-3.15-1.336-3.199-3.243-.049-1.959 1.367-3.697 3.18-3.833z" style="fill:rgb(132, 155, 135);animation-play-state:paused" ></path>
<path fill="#849b87" d="M66.374 50.061c1.48 0 2.197 1.088 2.17 2.403-.026 1.285-.737 2.291-2.158 2.272-1.41-.018-2.571-1.04-2.603-2.307-.033-1.297 1.122-2.369 2.591-2.368z" style="fill:rgb(132, 155, 135);animation-play-state:paused" ></path>
<path fill="#849b87" d="M52.284 24.487l3.011 29.853.567 5.618 6.322.176 8.064.238 6.861.191.606-5.944 3.359-32.938 1.151-11.289-10.135 1.04-11.933 1.273-8.968.92 1.095 10.862zm25.825-3.119l-2.732 33.543c-2.169.572-3.895 1.932-4.676 3.625l-8.96-.216c-.747-1.677-2.367-3.046-4.355-3.65l-2.548-30.86c2.595-1.22 4.571-3.99 5.186-7.468l12.464-1.198c.83 3.135 2.902 5.413 5.621 6.224z" style="fill:rgb(132, 155, 135);animation-play-state:paused" ></path></g>
<path fill="#f5e6c8" d="M83.711 41.01H66.008c-2.827 0-.311-.009-3.139 0-1.501.004-3.145.294-4.623.173-1.558-.127-4.361-1.041-4.871-2.527-.18-.523-.322-1.126-.839-1.414-.258-.144-.571-.181-.875-.189-1.793-.046-3.487.854-4.691 2.052-3.272 3.255-3.458 7.416-8.595 9.1-3.874 1.269-8.202.801-12.236.801H11.796v35.531h30.033c.398 0 .776.062 1.14.152.238.059.474.121.693.214 4.505 1.91 9.309 3.238 14.326 3.238h20.373v-.282c2.516-.741 4.336-2.871 4.336-5.386v-.434c0-2.516-1.819-4.646-4.336-5.387v-.282h.719c3.473 0 6.288-2.538 6.288-5.669v-.434c0-3.131-2.815-5.669-6.288-5.669h-.719v-.043h3.213c3.473 0 6.288-2.538 6.288-5.669v-.436c0-3.131-2.815-5.669-6.288-5.669h2.138c3.473 0 6.288-2.538 6.288-5.669v-.434c0-3.13-2.815-5.668-6.289-5.668z" style="fill:rgb(245, 230, 200);animation-play-state:paused" ></path>
<path fill="#333" d="M35.104 89.607H14.216A4.216 4.216 0 0 1 10 85.391v-39.7a4.216 4.216 0 0 1 4.216-4.216h20.888a4.216 4.216 0 0 1 4.216 4.216v39.7a4.215 4.215 0 0 1-4.216 4.216z" style="fill:rgb(7, 42, 204);animation-play-state:paused" ></path>
<metadata xmlns:d="https://loading.io/stock/" style="animation-play-state:paused" ><d:name style="animation-play-state:paused" >pay</d:name>
<d:tags style="animation-play-state:paused" >pay,spend,charge,send money,give,transfer,hand,money</d:tags>
<d:license style="animation-play-state:paused" >by</d:license>
<d:slug style="animation-play-state:paused" >uub8y3</d:slug></metadata></g><!-- generated by https://loading.io/ --></svg>