<?xml version="1.0" encoding="utf-8"?><svg xml:space="preserve" viewBox="0 0 100 100" y="0" x="0" xmlns="http://www.w3.org/2000/svg" id="圖層_1" version="1.1" width="128px" height="128px" xmlns:xlink="http://www.w3.org/1999/xlink" style="width:100%;height:100%;background-size:initial;background-repeat-y:initial;background-repeat-x:initial;background-position-y:initial;background-position-x:initial;background-origin:initial;background-image:initial;background-color:rgb(241, 242, 243);background-clip:initial;background-attachment:initial;animation-play-state:paused" ><g class="ldl-scale" style="transform-origin:50% 50%;transform:rotate(0deg) scale(0.8, 0.8);animation-play-state:paused" ><g style="animation-play-state:paused" ><path d="M8.808 32.31l55.414-20.035 20.034 55.413-55.414 20.035z" stroke-miterlimit="10" stroke-width="3.5699286" stroke="#333" fill="#fff" style="stroke:rgb(76, 141, 255);fill:rgb(255, 255, 255);animation-play-state:paused" ></path>
<path d="M23.881 27.347h45.305v45.305H23.881z" fill="#a0c8d7" transform="rotate(-19.881 46.533 50.005)" style="fill:rgb(160, 200, 215);animation-play-state:paused" ></path></g>
<g style="animation-play-state:paused" ><path d="M26.38 20.537h58.926v58.925H26.38z" stroke-miterlimit="10" stroke-width="3.57" stroke="#333" fill="#fff" style="stroke:rgb(76, 141, 255);fill:rgb(255, 255, 255);animation-play-state:paused" ></path>
<path d="M33.19 27.347h45.305v45.305H33.19z" fill="#e0e0e0" style="fill:rgb(224, 224, 224);animation-play-state:paused" ></path></g>
<g style="animation-play-state:paused" ><path fill="#333" d="M60.704 47.103c-1.411-.697-3.008-1.098-4.704-1.098s-3.293.401-4.704 1.098c-3.324 1.642-5.601 4.961-5.601 8.797v6.626c0 1.367 1.154 2.475 2.578 2.475h15.456c1.424 0 2.578-1.108 2.578-2.475V55.9c-.002-3.837-2.279-7.155-5.603-8.797z" style="fill:rgb(76, 141, 255);animation-play-state:paused" ></path>
<path fill="#333" d="M62.612 42.334a6.647 6.647 0 0 0-8.605-7.029 6.625 6.625 0 0 0-1.054.439c-.062.032-.124.063-.184.097a6.274 6.274 0 0 0-.453.275c-.055.037-.108.078-.162.116a6.595 6.595 0 0 0-.489.383 6.53 6.53 0 0 0-.213.194c-.069.064-.138.128-.204.195a6.827 6.827 0 0 0-.314.345c-.075.089-.145.181-.216.274-.037.049-.074.097-.11.147-.072.1-.142.201-.208.305-.02.031-.038.063-.057.094a6.615 6.615 0 0 0-.566 1.159l-.024.065c-.157.435-.27.89-.334 1.363a6.708 6.708 0 0 0-.067.891 6.647 6.647 0 0 0 13.26.687z" style="fill:rgb(76, 141, 255);animation-play-state:paused" ></path></g>
<metadata xmlns:d="https://loading.io/stock/" style="animation-play-state:paused" ><d:name style="animation-play-state:paused" >photo</d:name>


<d:tags style="animation-play-state:paused" >portrait,avatar,people,man,photo,camera</d:tags>


<d:license style="animation-play-state:paused" >by</d:license>


<d:slug style="animation-play-state:paused" >aplesi</d:slug></metadata></g><!-- generated by https://loading.io/ --></svg>