<?xml version="1.0" encoding="utf-8"?><svg xml:space="preserve" viewBox="0 0 100 100" y="0" x="0" xmlns="http://www.w3.org/2000/svg" id="圖層_1" version="1.1" width="32px" height="32px" xmlns:xlink="http://www.w3.org/1999/xlink" style="width:100%;height:100%;background-size:initial;background-repeat-y:initial;background-repeat-x:initial;background-position-y:initial;background-position-x:initial;background-origin:initial;background-image:initial;background-color:rgb(255, 255, 255);background-clip:initial;background-attachment:initial;animation-play-state:paused" ><g class="ldl-scale" style="transform-origin:50% 50%;transform:rotate(0deg) scale(0.8, 0.8);animation-play-state:paused" ><circle fill="#333" r="5.1" cy="15.1" cx="50.5" style="fill:rgb(255, 182, 9);animation-play-state:paused" ></circle>
<circle r="5.1" fill="#333" cy="25.7" cx="75.1" transform="rotate(-45.001 75.062 25.655)" style="fill:rgb(255, 182, 9);animation-play-state:paused" ></circle>
<circle fill="#333" r="5.1" cy="50.5" cx="84.9" style="fill:rgb(255, 182, 9);animation-play-state:paused" ></circle>
<circle r="5.1" fill="#333" cy="75.1" cx="74.3" transform="rotate(-45.001 74.345 75.063)" style="fill:rgb(255, 182, 9);animation-play-state:paused" ></circle>
<circle fill="#333" r="5.1" cy="84.9" cx="49.5" style="fill:rgb(255, 182, 9);animation-play-state:paused" ></circle>
<circle r="5.1" fill="#333" cy="74.3" cx="24.9" transform="rotate(-45.001 24.937 74.347)" style="fill:rgb(255, 182, 9);animation-play-state:paused" ></circle>
<circle fill="#333" r="5.1" cy="49.5" cx="15.1" style="fill:rgb(255, 182, 9);animation-play-state:paused" ></circle>
<circle r="5.1" fill="#333" cy="24.9" cx="25.7" transform="rotate(-45.001 25.654 24.938)" style="fill:rgb(255, 182, 9);animation-play-state:paused" ></circle>
<path fill="#666" d="M56.7 48.5c3-1.6 4.8-4.3 4.8-7.2v-3.1h1.9c1 0 1.8-.8 1.8-1.8s-.8-1.8-1.8-1.8H37.6c-1 0-1.8.8-1.8 1.8s.8 1.8 1.8 1.8h1.9v3.1c0 2.9 1.8 5.6 4.8 7.2.8.4 1.3 1.1 1.3 1.7v.6c0 .6-.5 1.3-1.3 1.7-3 1.6-4.8 4.3-4.8 7.2v3.1h-1.9c-1 0-1.8.8-1.8 1.8s.8 1.8 1.8 1.8h25.7c1 0 1.8-.8 1.8-1.8s-.8-1.8-1.8-1.8h-1.9v-3.1c0-2.9-1.8-5.6-4.8-7.2-.8-.4-1.3-1.1-1.3-1.7v-.6c.1-.6.5-1.3 1.4-1.7zM55 55.7c1.9 1 3 2.5 3 4.1v3.1H43v-3.1c0-1.6 1.1-3.1 3-4.1 2-1.1 3.2-2.9 3.2-4.8v-.6c0-2-1.2-3.8-3.2-4.8-1.9-1-3-2.5-3-4.1v-3.1h15v3.1c0 1.6-1.1 3.1-3 4.1-2 1.1-3.2 2.9-3.2 4.8v.6c0 1.9 1.2 3.7 3.2 4.8z" style="fill:rgb(236, 117, 18);animation-play-state:paused" ></path>
<metadata xmlns:d="https://loading.io/stock/" style="animation-play-state:paused" ><d:name style="animation-play-state:paused" >wait</d:name>
<d:tags style="animation-play-state:paused" >wait,spinner,hourglass,loader,preloader,ajax spinner,waiting icon,loading icon,loading gif</d:tags>
<d:license style="animation-play-state:paused" >by</d:license>
<d:slug style="animation-play-state:paused" >tcjp3h</d:slug></metadata></g><!-- generated by https://loading.io/ --></svg>