<?xml version="1.0" encoding="utf-8"?><svg viewBox="0 0 100 100" xmlns="http://www.w3.org/2000/svg" width="128px" height="128px" xmlns:xlink="http://www.w3.org/1999/xlink" style="width:100%;height:100%;background-size:initial;background-repeat-y:initial;background-repeat-x:initial;background-position-y:initial;background-position-x:initial;background-origin:initial;background-image:initial;background-color:rgb(255, 255, 255);background-clip:initial;background-attachment:initial;animation-play-state:paused" ><g class="ldl-scale" style="transform-origin:50% 50%;transform:rotate(0deg) scale(0.8, 0.8);animation-play-state:paused" ><g style="animation-play-state:paused" ><path stroke-miterlimit="10" stroke-linejoin="round" stroke-linecap="round" stroke-width="3" stroke="#849b87" fill="none" d="M72.443 61.714l.057-.823a2.884 2.884 0 0 0-.794-1.884l-7.454-7.817a2.882 2.882 0 0 0-2.085-.893h-4.441a2.033 2.033 0 0 1-2.033-2.033v-3.198a7.549 7.549 0 0 0 4.329-6.823v-7.711a7.487 7.487 0 0 0-7.487-7.487h-5.07a7.487 7.487 0 0 0-7.487 7.487v7.711a7.546 7.546 0 0 0 4.329 6.823v3.198c0 1.123-.91 2.033-2.033 2.033h-4.441a2.88 2.88 0 0 0-2.085.893l-7.454 7.817a2.88 2.88 0 0 0-.794 1.884l.057.823" style="stroke:rgb(76, 141, 255);animation-play-state:paused" ></path>
<circle stroke-miterlimit="10" stroke-linejoin="round" stroke-linecap="round" stroke-width="3" stroke="#000" fill="none" r="29.875" cy="42" cx="50" style="stroke:rgb(76, 141, 255);animation-play-state:paused" ></circle></g>
<g style="animation-play-state:paused" ><path d="M37.443 80.25h25.114" stroke-miterlimit="10" stroke-linejoin="round" stroke-linecap="round" stroke-width="3" stroke="#000" fill="none" style="stroke:rgb(76, 141, 255);animation-play-state:paused" ></path>
<path d="M37.443 87.25h16.114" stroke-miterlimit="10" stroke-linejoin="round" stroke-linecap="round" stroke-width="3" stroke="#000" fill="none" style="stroke:rgb(76, 141, 255);animation-play-state:paused" ></path></g>
<metadata xmlns:d="https://loading.io/stock/" style="animation-play-state:paused" ><d:name style="animation-play-state:paused" >profile</d:name>


<d:tags style="animation-play-state:paused" >profile,information,personal,privacy,about me,portfolio,introduction,brief</d:tags>


<d:license style="animation-play-state:paused" >by</d:license>


<d:slug style="animation-play-state:paused" >qsfftn</d:slug></metadata></g><!-- generated by https://loading.io/ --></svg>